<?xml version="1.0" standalone="no"?>
<!DOCTYPE svg PUBLIC "-//W3C//DTD SVG 1.1//EN" "http://www.w3.org/Graphics/SVG/1.1/DTD/svg11.dtd">
<svg xmlns="http://www.w3.org/2000/svg" xmlns:xlink="http://www.w3.org/1999/xlink" version="1.1" x="0px" y="0px" viewBox="0 0 1628.1 556.9" style="enable-background:new 0 0 1628.1 556.9;" xml:space="preserve" width="1628.0999755859375" height="556.9000244140625">
<style type="text/css">
	.st0{fill:#D74034;}
	.st1{fill:none;}
	.st2{fill:#FFFFFF;}
</style>
<g id="Full_Logo_-_White_on_Red">
</g>
<g id="Full_Logo_-_Red_on_Transparent">
	<g>
		<g>
			<polygon class="st1" points="200.5,338 158.5,298 137.3,366.4    "/>
			<polygon class="st1" points="220,190.8 102.6,210 156.7,277.5    "/>
			<polygon class="st1" points="148.9,291.9 129.2,291.9 143.2,309.1    "/>
			<polygon class="st1" points="342.7,356.5 283.1,421.2 365.2,390.9    "/>
			<polygon class="st1" points="419.2,355.5 354.2,353.5 376.2,387.2    "/>
			<path class="st1" d="M287.2,308.3c9.3,5.5,18.9,11,28.2,16.4l-28.7-31.8c0,0.1,0,0.2,0,0.3c-0.4,4.6-0.8,8.6-0.8,12.6     C285.9,306.6,286.7,308,287.2,308.3z"/>
			<path class="st1" d="M285.9,267c1.5-1.3,2.9-2.6,4.2-4c0.6-0.7,1.3-1.3,2-1.9c1.4-1.3,3.6-3.3,3.7-4.4c0.4-8.5,0.4-17.3,0.4-25.8     L285.9,267z"/>
			<polygon class="st1" points="298,271.5 434.1,267.3 403.8,176.4    "/>
			<polygon class="st1" points="426.7,278.9 293,283 344.5,340.1    "/>
			<polygon class="st1" points="242.8,189.9 277.3,255.9 294.5,195.8    "/>
			<polygon class="st1" points="643,277.9 686.8,242.4 648.2,230.3    "/>
			<path class="st1" d="M308.4,218.5c0,7.8,0,15.7,0,23.7l0,4.8l79.9-71.7l-7,1.8c-23.3,6-47.4,12.2-71,18.6c-0.5,0.4-1.5,2-1.6,3.1     c-0.4,5.2-0.4,10.6-0.4,15.9C308.4,215.9,308.4,217.2,308.4,218.5z"/>
			<polygon class="st1" points="775,231.2 704.7,244.8 704.7,313.5    "/>
			<polygon class="st1" points="313.4,183 393.2,162.3 344.9,125.3    "/>
			<path class="st1" d="M692.8,232.5c2.7,0.8,5.4,1.7,7.6,1.3c10.5-1.8,21.2-3.8,31.7-5.8h-53.7c4.6,1.5,9,2.9,13.5,4.2L692.8,232.5     z"/>
			<polygon class="st1" points="692.1,252.6 645.8,290.1 692.1,316.3    "/>
			<path class="st1" d="M211.4,332.3c0.6,0.2,2.5,0.2,3.6-0.3c14.1-6,28.3-12.4,42.1-18.5l3.2-1.4L175,295.5     c1.1,1.2,2.3,2.3,3.4,3.4C189.7,310.5,200.5,321.5,211.4,332.3z"/>
			<path class="st1" d="M443.9,433.1c0.1,0.1,0.7,0.5,2.4,0.5c1,0,2.1,0,3.1,0c3,0,6,0,8.9,0.1c2.9,0,5.7,0.1,8.6,0.1     c18.5,0,37.1,0,56.5,0l15.3,0l-95.2-70.4l0,13.4c0,17.9,0,36.3,0,54.4C443.5,432.1,443.6,432.8,443.9,433.1z"/>
			<polygon class="st1" points="689.8,328 638.1,298.6 573.1,420.2    "/>
			<path class="st1" d="M636.5,224.1c-12.3-6.6-24.9-13.1-37.1-19.5l-4.1-2.2l37,69.7c1.7-15.2,3.5-30.9,5-46.3     C637.3,225.4,636.8,224.4,636.5,224.1z"/>
			<polygon class="st1" points="431.2,360.7 384.7,394.9 431.2,426.8    "/>
			<polygon class="st1" points="627.2,295.1 556.4,282.2 561.2,418.6    "/>
			<polygon class="st1" points="276.1,284.6 202.9,289.4 274.5,303.2    "/>
			<polygon class="st1" points="506,206.4 555.7,138.7 503.3,129.1    "/>
			<polygon class="st1" points="510.6,225 548.3,265 572.6,200.2    "/>
			<polygon class="st1" points="506.4,302.8 542.1,274.7 506.4,237    "/>
			<polygon class="st1" points="497.3,322.9 446,351.2 542.2,422.3    "/>
			<polygon class="st1" points="558.1,271.1 625.4,283.3 583.3,203.8    "/>
			<polygon class="st1" points="144.4,279.9 130.1,262.7 124.5,279.9    "/>
			<path class="st1" d="M576,185c-3.3-11-6.7-22-10.4-33.6c-0.5-1.6-1-3.3-1.6-5l-45.9,62.4c20.1-7,39.3-14.7,57.2-22.1     C575.6,186.4,576,185.4,576,185z"/>
			<path class="st1" d="M545.2,286.7c-2.6,2-5.1,4.1-7.6,6c-9.4,7.5-18.4,14.5-27.5,21.4c-2.8,2.1-3.1,3.3-1.4,7     c10.1,22.2,20.4,44.8,30.2,66.6c3.6,7.9,7.2,15.8,10.7,23.7L545.2,286.7z"/>
			<polygon class="st1" points="334.6,348.7 283.6,319.4 271.4,417.2    "/>
			<polygon class="st1" points="272.2,319.1 260.4,324.5 269.2,343.2    "/>
			<polygon class="st1" points="168.5,280.4 273.7,273.4 232,193.4    "/>
			<polygon class="st1" points="413.6,170.2 438,243.4 440.2,170.2    "/>
			<polygon class="st1" points="454.4,164.9 494.7,208.1 492.2,133.2    "/>
			<polygon class="st1" points="448.9,260 492.7,222.4 451.3,178.1    "/>
			<path class="st1" d="M361.9,341.2c20.5,1.7,40.9,2.4,60.7,3.1l6.1,0.2c1.8,0.1,2,0.1,2.2-3.2c0.4-4.8,0.9-9.5,1.3-14.3     c0.4-4.1,0.8-8.2,1.2-12.2c0.7-7.6,1.3-15.2,2-23.2l0.5-5.6L361.9,341.2z"/>
			<polygon class="st1" points="494.3,235.9 451.9,272.3 494.3,303.8    "/>
			<polygon class="st1" points="489.5,314.3 447.6,283.1 442.3,340.4    "/>
			<path class="st0" d="M794.2,221c-0.8-1.9-2.9-3.1-6.8-3.8c-1.8-0.3-3.6-0.3-5.4-0.3c-0.6,0-1.1,0-1.7,0l-29.1-0.2     c-32.6-0.2-66.3-0.4-99.5-0.7c-3.7,0-7.1-0.8-9.7-2.1c-17.1-8.6-33.9-17.4-50.1-26.1c-2-1.1-4-3.5-4.8-5.7     c-4.4-13.2-8.8-27.2-14.3-45.6c-1.5-4.9-4.2-7.3-9.3-8.2l-1.4-0.2c-18-3.1-36.6-6.3-54.8-10.2c-9.5-2-16.1-0.2-22,6.1     c-4.4,4.7-31.1,29.6-40.7,33.1c-9.2,3.3-31.4,0.9-33.1,0.8c-2.8-0.6-7.9-2-9.7-3.3c-12.6-9.4-25.3-19.1-37.6-28.6     c-4.4-3.4-8.8-6.8-13.2-10.2c-4.3-3.3-6.4-4.9-9-4.4c-2.7,0.6-4,3-6.7,7.9c-2.4,4.4-4.8,8.8-7.2,13.2     c-8.7,16-17.8,32.5-26.5,48.8c-1.5,2.9-2.9,3.6-5.8,3.2c-9.4-1.3-19-2.3-28.3-3.3l-1.5-0.2c-2.8-0.3-5.6-0.7-8.4-1     c-14.5-1.8-29.5-3.6-44.7,0.3c-5.4,1.4-11.2,2.2-16.8,3c-2.6,0.4-5.3,0.7-7.9,1.2l-24,3.9c-22.5,3.6-45.7,7.4-68.6,11.2     c-3.4,0.6-7.1,1.4-8.2,4.3c-1,2.6,0.5,5.4,3.4,9.1c2.7,3.5,5.5,7,8.3,10.4c6.6,8.4,13.5,17,20,25.7c1.1,1.5,1.7,4.7,1.2,6.6     c-1.9,7.1-4.4,14.9-7.9,24.4c-1.8,4.8-1.1,8.6,2.5,12.7c8.2,9.4,15.3,18.1,21.8,26.7c1,1.3,1.5,4.3,1,6.1     c-2.5,9.2-5.3,18.5-7.9,27.5c-1.7,5.8-3.5,11.8-5.2,17.8l-0.1,0.2c-0.8,2.9-2,7,0.3,9.2c1.9,1.8,5.2,1.6,10.1-0.5     c16.1-7,32.3-14.2,48.1-21.2c5.1-2.3,10.2-4.5,15.3-6.8c12.7-5.6,25.5-11.3,38.5-17L250,329l3.1,6.6c4.4,9.3,8.6,18.1,12.7,27     c0.5,1,0.6,2.4,0.5,3.8c-2.4,20.3-5,41.4-7.6,62.7c-0.5,4.1-0.8,7.7,1.6,9.6c2.3,1.9,5.8,0.8,9.8-0.6l16.1-5.9     c26.2-9.6,53.3-19.6,79.9-29.6c4.8-1.8,7.9-1.5,11.7,1.3c17.4,12.5,35.4,24.8,52.7,36.7l3.6,2.5c2.1,1.4,4.9,1.8,6.9,1.8l9.8,0.1     c32.9,0.4,66.8,0.8,100.3,0.9c0,0,0,0,0,0c4.6,0,9.9-1.8,13.5-4.7c36.4-28.4,73.1-57.5,108.7-85.6l10.2-8c2.1-1.7,4.4-3.3,6.6-5     c5.7-4.2,11.6-8.6,16.3-14c23.4-26.7,46.8-54.2,69.4-80.9c5.3-6.3,10.7-12.6,16-18.9C792.3,228.1,795.6,224.1,794.2,221z      M313.4,183l31.5-57.8l48.3,37L313.4,183z M310.3,195.6c23.6-6.3,47.7-12.5,71-18.6l7-1.8L308.4,247l0-4.8c0-8,0-15.9,0-23.7     c0-1.3,0-2.6,0-3.9c0-5.2,0-10.6,0.4-15.9C308.8,197.7,309.8,196,310.3,195.6z M775,231.2l-70.3,82.3v-68.7L775,231.2z      M678.3,228H732c-10.4,2-21.1,4-31.7,5.8c-2.2,0.4-4.9-0.5-7.6-1.3l-1-0.3C687.4,230.9,682.9,229.5,678.3,228z M595.3,202.5     l4.1,2.2c12.2,6.4,24.8,12.9,37.1,19.5c0.3,0.3,0.8,1.3,0.8,1.7c-1.5,15.4-3.3,31.1-5,46.3L595.3,202.5z M689.8,328l-116.7,92.2     l65-121.5L689.8,328z M643,277.9l5.3-47.6l38.6,12.1L643,277.9z M692.1,252.6v63.7l-46.3-26.3L692.1,252.6z M443.5,376.7l0-13.4     l95.2,70.4l-15.3,0c-19.4,0-37.9,0-56.5,0c-2.9,0-5.7,0-8.6-0.1c-2.9,0-5.9-0.1-8.9-0.1c-1,0-2.1,0-3.1,0c-1.7,0-2.2-0.3-2.4-0.5     c-0.3-0.3-0.4-1-0.4-2C443.5,413,443.5,394.5,443.5,376.7z M431.2,360.7v66.1l-46.5-31.9L431.2,360.7z M419.2,355.5l-43,31.7     l-22-33.7L419.2,355.5z M342.7,356.5l22.5,34.4l-82,30.3L342.7,356.5z M148.9,291.9l-5.7,17.2l-14-17.2H148.9z M200.5,338     l-63.2,28.4l21.2-68.5L200.5,338z M220,190.8l-63.3,86.7L102.6,210L220,190.8z M242.8,189.9l51.7,6l-17.3,60.1L242.8,189.9z      M298,271.5l105.8-95.1l30.3,90.8L298,271.5z M426.7,278.9l-82.2,61.3L293,283L426.7,278.9z M295.8,256.7     c-0.1,1.1-2.2,3.1-3.7,4.4c-0.7,0.6-1.4,1.3-2,1.9c-1.3,1.4-2.8,2.7-4.2,4l10.3-36.1C296.2,239.4,296.2,248.1,295.8,256.7z      M285.9,305.8c0.1-4,0.4-7.9,0.8-12.6c0-0.1,0-0.2,0-0.3l28.7,31.8c-9.3-5.3-18.9-10.8-28.2-16.4     C286.7,308,285.9,306.6,285.9,305.8z M175,295.5l85.4,16.5l-3.2,1.4c-13.8,6.1-28,12.5-42.1,18.5c-1.1,0.5-3,0.5-3.6,0.3     c-11-10.8-21.7-21.8-33.1-33.4C177.2,297.8,176.1,296.6,175,295.5z M276.1,284.6l-1.6,18.6l-71.5-13.8L276.1,284.6z M168.5,280.4     l63.5-86.9l41.8,80L168.5,280.4z M272.2,319.1l-2.9,24.1l-8.9-18.7L272.2,319.1z M334.6,348.7l-63.2,68.5l12.2-97.9L334.6,348.7z      M413.6,170.2h26.6l-2.2,73.2L413.6,170.2z M433.4,314.8c-0.4,4.1-0.8,8.2-1.2,12.2c-0.5,4.8-0.9,9.5-1.3,14.3     c-0.3,3.3-0.5,3.3-2.2,3.2l-6.1-0.2c-19.8-0.7-40.2-1.4-60.7-3.1l74.1-55.2l-0.5,5.6C434.8,299.7,434.1,307.3,433.4,314.8z      M489.5,314.3l-47.3,26.1l5.4-57.3L489.5,314.3z M448.9,260l2.4-82l41.4,44.4L448.9,260z M494.3,235.9v68l-42.3-31.5L494.3,235.9     z M454.4,164.9l37.7-31.7l2.6,74.9L454.4,164.9z M506,206.4l-2.6-77.3l52.3,9.7L506,206.4z M510.6,225l62-24.8L548.3,265     L510.6,225z M506.4,302.8V237l35.7,37.8L506.4,302.8z M508.7,321c-1.7-3.7-1.5-4.9,1.4-7c9.2-6.8,18.1-13.9,27.5-21.4     c2.5-2,5.1-4,7.6-6l4.4,124.7c-3.6-7.9-7.2-15.8-10.7-23.7C529,365.8,518.8,343.2,508.7,321z M497.3,322.9l44.9,99.4L446,351.2     L497.3,322.9z M627.2,295.1l-66,123.5l-4.8-136.4L627.2,295.1z M558.1,271.1l25.2-67.3l42.2,79.5L558.1,271.1z M518.1,208.8     l45.9-62.4c0.5,1.7,1,3.3,1.6,5c3.7,11.6,7.1,22.5,10.4,33.6c0,0.4-0.4,1.4-0.7,1.8C557.4,194.1,538.2,201.8,518.1,208.8z      M144.4,279.9h-20l5.6-17.2L144.4,279.9z"/>
		</g>
		<g>
			<path class="st0" d="M926.4,259.7c-9.8-1.3-17-2-21.4-2c-4.4,0-7.5,0.5-9.2,1.6c-1.7,1-2.6,2.7-2.6,4.9s0.9,3.8,2.8,4.8     c1.9,0.9,6.3,2,13.2,3.2c7,1.2,11.9,3.1,14.8,5.7c2.9,2.6,4.4,7.2,4.4,13.8c0,6.6-2.1,11.4-6.3,14.5c-4.2,3.1-10.4,4.6-18.4,4.6     c-5.1,0-11.5-0.7-19.2-2.1l-3.9-0.6l0.5-11.4c10,1.3,17.2,2,21.6,2c4.4,0,7.6-0.5,9.4-1.6c1.9-1.1,2.8-2.9,2.8-5.4     s-0.9-4.2-2.7-5.2c-1.8-1-6.1-2-12.9-3.1c-6.8-1.1-11.8-2.9-14.9-5.3c-3.2-2.4-4.8-6.8-4.8-13.2c0-6.4,2.2-11.2,6.6-14.4     c4.4-3.2,10-4.8,16.8-4.8c5.3,0,11.9,0.7,19.6,2l3.9,0.8L926.4,259.7z"/>
			<path class="st0" d="M975.2,258.4H958v27.5c0,5.1,0.4,8.5,1.1,10.1c0.8,1.7,2.7,2.5,5.8,2.5l10.2-0.4l0.6,10.9     c-5.6,1.1-9.8,1.6-12.8,1.6c-7.1,0-11.9-1.6-14.6-4.9s-3.9-9.4-3.9-18.4v-29h-8v-11.6h8v-18.1H958v18.1h17.2V258.4z"/>
			<path class="st0" d="M1032.6,266v28.5c0.1,1.8,0.6,3.2,1.4,4.1s2.2,1.4,4.1,1.7l-0.4,10.4c-7.2,0-12.7-1.5-16.6-4.6     c-6.7,3.1-13.4,4.6-20.1,4.6c-12.4,0-18.6-6.6-18.6-19.9c0-6.3,1.7-10.9,5.1-13.8c3.4-2.8,8.6-4.5,15.6-5.1l16.1-1.4V266     c0-3.3-0.7-5.7-2.2-7c-1.5-1.3-3.6-2-6.4-2c-5.3,0-12,0.3-20,1l-4,0.2l-0.5-9.6c9.1-2.2,17.4-3.2,25.1-3.2s13.1,1.6,16.5,4.9     C1030.9,253.6,1032.6,258.9,1032.6,266z M1004.6,281.5c-5.8,0.5-8.6,3.6-8.6,9.4s2.5,8.6,7.6,8.6c4.2,0,8.6-0.7,13.2-2l2.2-0.8     v-16.6L1004.6,281.5z"/>
			<path class="st0" d="M1049.7,309.3v-62.5h13.5v7.5c7.1-4.6,14.2-7.5,21.2-8.9V259c-7.2,1.4-13.3,3.2-18.4,5.5l-2.8,1.1v43.6     H1049.7z"/>
			<path class="st0" d="M1128.5,258.4h-17.2v27.5c0,5.1,0.4,8.5,1.1,10.1c0.8,1.7,2.7,2.5,5.8,2.5l10.2-0.4l0.6,10.9     c-5.6,1.1-9.8,1.6-12.8,1.6c-7.1,0-11.9-1.6-14.6-4.9s-3.9-9.4-3.9-18.4v-29h-8v-11.6h8v-18.1h13.5v18.1h17.2V258.4z"/>
			<path class="st0" d="M1177.5,246.8h13.5v62.5h-13.5v-3.9c-6.1,3.5-11.7,5.2-16.9,5.2c-8.6,0-14.3-2.3-17.2-6.9     c-2.9-4.6-4.4-12.7-4.4-24.3v-32.6h13.6v32.8c0,7.5,0.6,12.5,1.9,15.1c1.2,2.6,4.2,3.9,8.8,3.9c4.5,0,8.6-0.8,12.4-2.5l1.9-0.8     V246.8z"/>
			<path class="st0" d="M1207.5,336.2v-89.4h13.5v3.9c5.8-3.5,11.1-5.2,16.1-5.2c8.2,0,14.3,2.5,18.1,7.6c3.8,5,5.8,13.5,5.8,25.4     s-2.2,20.2-6.6,25.1c-4.4,4.8-11.5,7.2-21.4,7.2c-3.4,0-7.4-0.4-11.9-1.1v26.6H1207.5z M1234.7,257.5c-3.9,0-7.8,0.9-11.8,2.6     l-1.9,0.9v36.9c3.3,0.7,7,1,11,1c5.7,0,9.6-1.6,11.8-4.9c2.2-3.2,3.2-8.8,3.2-16.6C1247.1,264.2,1243,257.5,1234.7,257.5z"/>
			<path class="st0" d="M1345.5,259.7c-9.8-1.3-17-2-21.4-2c-4.4,0-7.5,0.5-9.2,1.6c-1.7,1-2.6,2.7-2.6,4.9s0.9,3.8,2.8,4.8     c1.9,0.9,6.3,2,13.2,3.2c7,1.2,11.9,3.1,14.8,5.7c2.9,2.6,4.4,7.2,4.4,13.8c0,6.6-2.1,11.4-6.3,14.5c-4.2,3.1-10.4,4.6-18.4,4.6     c-5.1,0-11.5-0.7-19.2-2.1l-3.9-0.6l0.5-11.4c10,1.3,17.2,2,21.6,2c4.4,0,7.6-0.5,9.4-1.6c1.9-1.1,2.8-2.9,2.8-5.4     s-0.9-4.2-2.7-5.2c-1.8-1-6.1-2-12.9-3.1c-6.8-1.1-11.8-2.9-14.9-5.3c-3.2-2.4-4.8-6.8-4.8-13.2c0-6.4,2.2-11.2,6.6-14.4     c4.4-3.2,10-4.8,16.8-4.8c5.3,0,11.9,0.7,19.6,2l3.9,0.8L1345.5,259.7z"/>
			<path class="st0" d="M1374.4,309.3h-13.6v-88.5h13.6V250c6.2-3.1,11.9-4.6,17.1-4.6c8.3,0,14,2.4,17.1,7.1     c3,4.7,4.6,12.5,4.6,23.3v33.5h-13.6v-33.1c0-6.8-0.7-11.5-2.1-14.4c-1.4-2.8-4.4-4.2-9-4.2c-4,0-8,0.7-12,2l-2,0.8V309.3z"/>
			<path class="st0" d="M1473.5,298l3.5-0.4l0.2,10.1c-9.5,1.9-17.9,2.9-25.2,2.9c-9.2,0-15.9-2.5-19.9-7.6     c-4-5.1-6.1-13.2-6.1-24.4c0-22.2,9-33.2,27.1-33.2c17.5,0,26.2,9.5,26.2,28.6l-0.9,9.8h-38.8c0.1,5.2,1.2,9,3.4,11.4     c2.2,2.4,6.2,3.6,12.1,3.6C1461.1,298.8,1467.2,298.5,1473.5,298z M1466,273.3c0-6.2-1-10.5-2.9-12.9c-2-2.5-5.3-3.7-9.9-3.7     c-4.7,0-8.1,1.3-10.2,3.9c-2.1,2.6-3.2,6.8-3.3,12.8H1466z"/>
			<path class="st0" d="M1493.2,309.3v-88.5h13.6v88.5H1493.2z"/>
			<path class="st0" d="M1524.8,309.3v-88.5h13.6v88.5H1524.8z"/>
		</g>
	</g>
</g>
<g id="Full_Logo_-_White_on_Black">
</g>
<g id="Full_Logo_-_Black_on_Transparent">
</g>
<g id="Pictorial_-_White_on_Red">
</g>
<g id="Pictorial_-_White_on_Transparent">
</g>
<g id="Pictorial_-_Red_on_Transparent">
</g>
<g id="Pictorial_-_Black_on_Transparent">
</g>
<g id="Pictorial_-_White_on_Black">
</g>
</svg>